<svg width="12" height="12" viewBox="0 0 12 12" fill="none" xmlns="http://www.w3.org/2000/svg">
	<path xmlns="http://www.w3.org/2000/svg"
		d="M8.5002 4.125L5.16687 7.875L3.5 6M0.375 9.62512V2.37512C0.375 1.67506 0.375 1.32476 0.511242 1.05737C0.631084 0.82217 0.82217 0.631084 1.05737 0.511242C1.32476 0.375 1.67506 0.375 2.37512 0.375H9.62512C10.3252 0.375 10.6747 0.375 10.9421 0.511242C11.1773 0.631084 11.3691 0.82217 11.4889 1.05737C11.625 1.3245 11.625 1.67437 11.625 2.37307V9.62724C11.625 10.3259 11.625 10.6753 11.4889 10.9424C11.3691 11.1776 11.1773 11.3691 10.9421 11.4889C10.675 11.625 10.3256 11.625 9.62693 11.625H2.37307C1.67437 11.625 1.3245 11.625 1.05737 11.4889C0.82217 11.3691 0.631084 11.1776 0.511242 10.9424C0.375 10.675 0.375 10.3252 0.375 9.62512Z"
		stroke="#363636" stroke-opacity="0.7" stroke-width="0.75" stroke-linecap="round" stroke-linejoin="round" />
</svg>