<svg width="40" height="40" viewBox="0 0 40 40" fill="none" xmlns="http://www.w3.org/2000/svg">
	<path
		d="M15.1998 27.7778H24.7998M15.1998 23.1111H24.7998M21.6004 6.00136C21.4476 6 21.2756 6 21.0793 6H13.9201C12.1279 6 11.2312 6 10.5467 6.33909C9.94456 6.63737 9.45538 7.11296 9.14858 7.69835C8.7998 8.36385 8.7998 9.2357 8.7998 10.9781V29.0225C8.7998 30.7649 8.7998 31.6356 9.14859 32.3012C9.45538 32.8865 9.94456 33.363 10.5467 33.6612C11.2305 34 12.1262 34 13.9149 34L26.0848 34C27.8734 34 28.7678 34 29.4516 33.6612C30.0538 33.363 30.5446 32.8865 30.8514 32.3011C31.1998 31.6363 31.1998 30.7668 31.1998 29.0278V15.84C31.1998 15.6491 31.1996 15.4819 31.1982 15.3333M21.6004 6.00136C22.0571 6.00541 22.345 6.02188 22.6209 6.08629C22.9474 6.1625 23.2604 6.28819 23.5467 6.45877C23.8695 6.6511 24.1467 6.9206 24.6998 7.45833L29.7006 12.3202C30.254 12.8583 30.5292 13.1266 30.7271 13.4405C30.9025 13.7189 31.0324 14.0224 31.1107 14.3398C31.177 14.6081 31.1941 14.8893 31.1982 15.3333M21.6004 6.00136L21.5998 10.3559C21.5998 12.0983 21.5998 12.9691 21.9486 13.6346C22.2554 14.22 22.7446 14.6963 23.3467 14.9946C24.0305 15.3333 24.9262 15.3333 26.7149 15.3333H31.1982"
		stroke="white" stroke-width="2" stroke-linecap="round" stroke-linejoin="round" />
</svg>