<svg width="40" height="40" viewBox="0 0 40 40" fill="none" xmlns="http://www.w3.org/2000/svg">
	<path
		d="M21.2052 6.42761C20.9928 5.77413 20.0683 5.77413 19.856 6.42761C19.7611 6.71985 19.4887 6.91771 19.1814 6.91771C18.4943 6.91771 18.2087 7.79695 18.7645 8.20082C19.0131 8.38144 19.1172 8.70159 19.0222 8.99383C18.8099 9.64731 19.5578 10.1907 20.1137 9.78684C20.3623 9.60622 20.6989 9.60622 20.9475 9.78684C21.5034 10.1907 22.2513 9.64731 22.039 8.99383C21.944 8.70159 22.0481 8.38144 22.2966 8.20082C22.8525 7.79695 22.5668 6.91771 21.8797 6.91771C21.5725 6.91771 21.3001 6.71985 21.2052 6.42761Z"
		fill="#004691" fill-opacity="0.5" />
	<path fill-rule="evenodd" clip-rule="evenodd"
		d="M18.2826 12.689L15.9584 20.9897C15.3966 21.3564 14.9596 21.9214 14.7815 22.6273C14.1423 22.4716 13.4359 22.5503 12.7938 22.9376L11.2547 23.866C11.0861 23.9676 10.8751 23.9676 10.7066 23.866L9.16744 22.9376C7.39941 21.8712 5.14453 23.1444 5.14453 25.2091V31.4097C5.14453 32.8748 6.33222 34.0625 7.7973 34.0625H14.1639C14.3456 34.0625 14.5231 34.0442 14.6945 34.0094V34.0625H26.3667V34.0094C26.5381 34.0442 26.7155 34.0625 26.8972 34.0625H32.2028C33.6679 34.0625 34.8555 32.8748 34.8555 31.4097V25.3939C34.8555 23.2653 32.4746 22.0036 30.7132 23.1988L29.8479 23.786C29.6681 23.908 29.432 23.908 29.2521 23.786L28.3868 23.1988C27.7315 22.7541 26.9904 22.6495 26.3181 22.8031C26.1722 22.0151 25.7104 21.3863 25.1028 20.9897L22.7786 12.689C22.142 10.4156 18.9191 10.4157 18.2826 12.689ZM20.3982 13.1438C20.3777 13.1582 20.3473 13.186 20.3262 13.2612L18.2827 20.5597C19.5964 19.5159 21.4648 19.5159 22.7785 20.5597L20.735 13.2612C20.7139 13.186 20.6835 13.1582 20.663 13.1438C20.6347 13.1238 20.5888 13.1062 20.5306 13.1062C20.4724 13.1062 20.4265 13.1238 20.3982 13.1438ZM16.8167 23.3409C16.8167 22.731 17.5472 22.4179 17.9889 22.8386C18.2568 23.0937 18.6778 23.0937 18.9458 22.8386L19.499 22.3117C20.0767 21.7615 20.9845 21.7615 21.5622 22.3117L22.1154 22.8386C22.3833 23.0937 22.8044 23.0937 23.0723 22.8386C23.514 22.4179 24.2445 22.731 24.2445 23.3409V31.9403H16.8167V23.3409ZM13.8899 24.7548C14.2435 24.5416 14.6945 24.7962 14.6945 25.2091V31.4097C14.6945 31.7027 14.457 31.9403 14.1639 31.9403H7.7973C7.50428 31.9403 7.26675 31.7027 7.26675 31.4097L7.26675 25.2091C7.26675 24.7962 7.71772 24.5416 8.07133 24.7548L9.61049 25.6832C10.4532 26.1915 11.5081 26.1915 12.3508 25.6832L13.8899 24.7548ZM26.3667 25.3939V31.4097C26.3667 31.7027 26.6042 31.9403 26.8972 31.9403H32.2028C32.4958 31.9403 32.7333 31.7027 32.7333 31.4097V25.3939C32.7333 24.9682 32.2571 24.7158 31.9049 24.9549L31.0395 25.5421C30.1403 26.1523 28.9598 26.1523 28.0605 25.5421L27.1951 24.9549C26.8429 24.7158 26.3667 24.9682 26.3667 25.3939Z"
		fill="#004691" fill-opacity="0.5" />
</svg>