<svg width="40" height="40" viewBox="0 0 40 40" fill="none" xmlns="http://www.w3.org/2000/svg">
	<path
		d="M17.8571 10.9482C17.2654 10.9482 16.7857 11.4377 16.7857 12.0415C16.7857 12.6453 17.2654 13.1347 17.8571 13.1347H22.1429C22.7346 13.1347 23.2143 12.6453 23.2143 12.0415C23.2143 11.4377 22.7346 10.9482 22.1429 10.9482H17.8571Z"
		fill="#004691" fill-opacity="0.5" />
	<path fill-rule="evenodd" clip-rule="evenodd"
		d="M7.81179 18.6011H8.21429V32.8135H6.07143C5.47969 32.8135 5 33.3029 5 33.9067C5 34.5105 5.47969 35 6.07143 35L33.9286 35C34.5203 35 35 34.5105 35 33.9067C35 33.3029 34.5203 32.8135 33.9286 32.8135H31.7857V18.6011H32.1882C33.7411 18.6011 35 17.3165 35 15.732C35 14.7525 34.5103 13.8407 33.7012 13.3136L21.7296 5.5153C20.6748 4.82823 19.3252 4.82823 18.2704 5.5153L6.29879 13.3136C5.48969 13.8407 5 14.7525 5 15.732C5 17.3165 6.25888 18.6011 7.81179 18.6011ZM7.81179 16.4145H32.1882C32.5576 16.4145 32.8571 16.1089 32.8571 15.732C32.8571 15.4989 32.7406 15.282 32.5482 15.1566L20.5765 7.35829C20.2249 7.12927 19.7751 7.12927 19.4235 7.35829L7.45184 15.1566C7.25936 15.282 7.14286 15.4989 7.14286 15.732C7.14286 16.1089 7.44235 16.4145 7.81179 16.4145ZM10.3571 32.8135V18.6011H14.6429V32.8135H10.3571ZM16.7857 32.8135V18.6011H23.2143V32.8135L16.7857 32.8135ZM25.3571 32.8135V18.6011H29.6429V32.8135H25.3571Z"
		fill="#004691" fill-opacity="0.5" />
</svg>