<svg width="40" height="40" viewBox="0 0 40 40" fill="none" xmlns="http://www.w3.org/2000/svg">
	<path fill-rule="evenodd" clip-rule="evenodd"
		d="M5.16014 17.4335C5 18.0052 5 18.6266 5 19.8692L5 29.8348C5 31.6428 5 32.5468 5.35034 33.2373C5.6585 33.8448 6.15022 34.3386 6.75503 34.6481C7.4426 35 8.34269 35 10.1429 35H13.6458C14.4342 35 14.8283 35 15.1555 34.9309C16.4028 34.6675 17.3773 33.6888 17.6395 32.436C17.7083 32.1075 17.7083 31.7116 17.7083 30.9198V29.1413C17.7083 27.8702 18.7343 26.8397 20 26.8397C21.2657 26.8397 22.2917 27.8702 22.2917 29.1413V30.9198C22.2917 31.7116 22.2917 32.1075 22.3605 32.436C22.6227 33.6888 23.5972 34.6675 24.8445 34.9309C25.1717 35 25.5658 35 26.3542 35H29.8571C31.6573 35 32.5574 35 33.245 34.6481C33.8498 34.3386 34.3415 33.8448 34.6497 33.2373C35 32.5468 35 31.6428 35 29.8348V19.8692C35 18.6266 35 18.0052 34.8399 17.4335C34.698 16.9271 34.4649 16.4511 34.1522 16.0291C33.7991 15.5527 33.3091 15.1733 32.3292 14.4147L24.1863 8.11063C22.6881 6.95071 21.939 6.37074 21.1129 6.14765C20.3839 5.95078 19.6161 5.95078 18.8871 6.14765C18.061 6.37074 17.3119 6.95071 15.8137 8.11063L7.6708 14.4147C6.69087 15.1733 6.2009 15.5527 5.84782 16.0291C5.53506 16.4511 5.30199 16.9271 5.16014 17.4335ZM32.8571 29.8348V19.8692C32.8571 18.504 32.8383 18.2351 32.7771 18.0163C32.7062 17.7631 32.5896 17.5251 32.4332 17.3141C32.2981 17.1318 32.0976 16.9527 31.021 16.1192L22.8781 9.81517C21.2244 8.53488 20.8687 8.31033 20.5564 8.22599C20.192 8.12756 19.808 8.12756 19.4436 8.22599C19.1313 8.31033 18.7756 8.53488 17.1219 9.81517L8.97903 16.1192C7.90243 16.9527 7.70186 17.1318 7.56677 17.3141C7.41039 17.5251 7.29385 17.7631 7.22293 18.0163C7.16165 18.2351 7.14286 18.504 7.14286 19.8692V29.8348C7.14286 30.7743 7.14452 31.3495 7.17953 31.7799C7.19584 31.9803 7.21633 32.1016 7.2336 32.1753C7.24181 32.2103 7.2487 32.2319 7.25284 32.2435C7.25682 32.2547 7.25964 32.2603 7.25964 32.2603C7.36236 32.4628 7.52627 32.6274 7.72787 32.7305C7.72787 32.7305 7.7334 32.7334 7.74455 32.7374C7.75615 32.7415 7.77761 32.7484 7.8125 32.7567C7.88584 32.774 8.00661 32.7946 8.20622 32.811C8.63471 32.8462 9.20741 32.8478 10.1429 32.8478H13.6458C14.0553 32.8478 14.3059 32.8475 14.4962 32.8406C14.6777 32.834 14.7213 32.8234 14.7145 32.8248C15.1303 32.737 15.4551 32.4108 15.5425 31.9932C15.5411 32 15.5517 31.9562 15.5583 31.7739C15.5652 31.5828 15.5655 31.3311 15.5655 30.9198V29.1413C15.5655 26.6816 17.5509 24.6875 20 24.6875C22.4491 24.6875 24.4345 26.6816 24.4345 29.1413V30.9198C24.4345 31.3311 24.4348 31.5828 24.4417 31.7739C24.4483 31.9562 24.4589 32 24.4575 31.9932C24.5449 32.4108 24.8697 32.737 25.2855 32.8248C25.2787 32.8234 25.3223 32.834 25.5038 32.8406C25.6941 32.8475 25.9447 32.8478 26.3542 32.8478H29.8571C30.7926 32.8478 31.3653 32.8462 31.7938 32.811C31.9934 32.7946 32.1142 32.774 32.1875 32.7567C32.2224 32.7484 32.2438 32.7415 32.2555 32.7374C32.2626 32.7348 32.267 32.7329 32.2696 32.7318L32.2721 32.7305C32.4737 32.6274 32.6376 32.4628 32.7404 32.2603C32.7404 32.2603 32.7432 32.2547 32.7472 32.2435C32.7513 32.2319 32.7582 32.2103 32.7664 32.1753C32.7837 32.1016 32.8042 31.9803 32.8205 31.7799C32.8555 31.3495 32.8571 30.7743 32.8571 29.8348Z"
		fill="#004691" fill-opacity="0.5" />
</svg>