<svg width="40" height="40" viewBox="0 0 40 40" fill="none" xmlns="http://www.w3.org/2000/svg">
	<path fill-rule="evenodd" clip-rule="evenodd"
		d="M35 20C35 28.2843 28.2843 35 20 35C11.7157 35 5 28.2843 5 20C5 11.7157 11.7157 5 20 5C28.2843 5 35 11.7157 35 20ZM21.4728 32.7737C20.9895 32.8288 20.4981 32.8571 20 32.8571C19.5019 32.8571 19.0105 32.8288 18.5271 32.7737C18.4739 32.6443 18.4149 32.4985 18.3512 32.3374C18.0582 31.5968 17.6662 30.5353 17.274 29.2608C16.9621 28.2472 16.6528 27.1071 16.3928 25.8929H23.6072C23.3472 27.1071 23.0378 28.2472 22.726 29.2608C22.3338 30.5353 21.9418 31.5968 21.6488 32.3374C21.5851 32.4985 21.5261 32.6443 21.4728 32.7737ZM23.9844 32.2278C27.2191 31.1745 29.8904 28.8734 31.4302 25.8929H25.7958C25.501 27.3562 25.136 28.7147 24.774 29.891C24.5009 30.7786 24.2278 31.5683 23.9844 32.2278ZM32.3017 23.75C32.6629 22.5636 32.8571 21.3045 32.8571 20C32.8571 18.8901 32.7165 17.8131 32.4521 16.7857H26.2285C26.3544 17.8382 26.4286 18.9175 26.4286 20C26.4286 21.267 26.3269 22.5297 26.1597 23.75H32.3017ZM31.6913 14.6429C30.2044 11.403 27.4103 8.88773 23.9844 7.77215C24.2278 8.43175 24.5009 9.22141 24.774 10.109C25.1798 11.4276 25.5894 12.9753 25.8996 14.6429H31.6913ZM21.4728 7.2263C21.5261 7.35566 21.5851 7.50146 21.6488 7.66256C21.9418 8.40322 22.3338 9.46472 22.726 10.7392C23.0833 11.9006 23.4374 13.228 23.7176 14.6429H16.2824C16.5626 13.228 16.9167 11.9006 17.274 10.7392C17.6662 9.46472 18.0582 8.40322 18.3512 7.66256C18.4149 7.50146 18.4739 7.35567 18.5271 7.2263C19.0105 7.17118 19.5019 7.14286 20 7.14286C20.4981 7.14286 20.9895 7.17118 21.4728 7.2263ZM16.0156 7.77217C12.5897 8.88775 9.79563 11.403 8.30866 14.6429H14.1004C14.4105 12.9753 14.8202 11.4276 15.2259 10.109C15.499 9.22141 15.7722 8.43176 16.0156 7.77217ZM7.54791 16.7857C7.28349 17.8131 7.14286 18.8901 7.14286 20C7.14286 21.3045 7.33713 22.5636 7.69833 23.75H13.8402C13.6731 22.5297 13.5714 21.267 13.5714 20C13.5714 18.9175 13.6456 17.8382 13.7715 16.7857H7.54791ZM8.5698 25.8929C10.1096 28.8734 12.7809 31.1745 16.0156 32.2278C15.7722 31.5682 15.499 30.7786 15.2259 29.891C14.864 28.7147 14.4989 27.3562 14.2042 25.8929H8.5698ZM15.7143 20C15.7143 18.9228 15.7949 17.8418 15.9307 16.7857H24.0693C24.2051 17.8418 24.2857 18.9228 24.2857 20C24.2857 21.2602 24.1753 22.5253 23.9955 23.75H16.0045C15.8246 22.5253 15.7143 21.2602 15.7143 20Z"
		fill="#004691" fill-opacity="0.5" />
</svg>