<svg width="40" height="40" viewBox="0 0 40 40" fill="none" xmlns="http://www.w3.org/2000/svg">
	<path
		d="M8.8 26.6764H8.1C6.9402 26.6764 6 27.5982 6 28.7352C6 29.8723 6.9402 30.794 8.1 30.794H31.9C33.0598 30.794 34 29.8723 34 28.7352C34 27.5982 33.0598 26.6764 31.9 26.6764H31.2M8.8 26.6764H31.2M8.8 26.6764V14.5982C8.8 13.0608 8.8 12.2916 9.10518 11.7044C9.37363 11.1878 9.80166 10.7682 10.3285 10.505C10.9275 10.2058 11.7121 10.2058 13.2803 10.2058H26.7203C28.2884 10.2058 29.0714 10.2058 29.6704 10.505C30.1972 10.7682 30.6267 11.1878 30.8951 11.7044C31.2 12.291 31.2 13.0593 31.2 14.5937V26.6764"
		stroke="white" stroke-width="2" stroke-linecap="round" stroke-linejoin="round" />
</svg>