<svg width="24" height="24" viewBox="0 0 24 24" fill="none" xmlns="http://www.w3.org/2000/svg">
	<path fill-rule="evenodd" clip-rule="evenodd"
		d="M10.2505 3.75694L14.5025 5.61719L18.1289 4.03061C19.3688 3.48819 20.7577 4.39655 20.7577 5.74983V17.2074C20.7577 17.953 20.3163 18.6278 19.6333 18.9266L15.2546 20.8423C14.7751 21.0521 14.2298 21.0521 13.7503 20.8423L9.49834 18.982L5.87187 20.5686C4.63206 21.111 3.24316 20.2027 3.24316 18.8494V7.39181C3.24316 6.64626 3.68452 5.97142 4.36756 5.67259L8.74618 3.75694C9.22568 3.54716 9.771 3.54716 10.2505 3.75694ZM4.869 6.81874L8.87282 5.06706V17.8902L5.37044 19.4225C4.95716 19.6033 4.4942 19.3005 4.4942 18.8494V7.39181C4.4942 7.14329 4.64132 6.91835 4.869 6.81874ZM10.1239 5.06706V17.8902L13.877 19.5322V6.70905L10.1239 5.06706ZM15.128 6.70905V19.5322L19.1318 17.7805C19.3595 17.6809 19.5066 17.4559 19.5066 17.2074V5.74983C19.5066 5.29873 19.0437 4.99595 18.6304 5.17675L15.128 6.70905Z"
		fill="white" />
</svg>