<svg width="40" height="40" viewBox="0 0 40 40" fill="none" xmlns="http://www.w3.org/2000/svg">
	<path fill-rule="evenodd" clip-rule="evenodd"
		d="M17.0026 6.26223L24.2857 9.36263L30.4974 6.71833C32.621 5.8143 35 7.32823 35 9.58369V28.6797C35 29.9222 34.244 31.047 33.0741 31.545L25.5741 34.7378C24.7527 35.0874 23.8187 35.0874 22.9974 34.7378L15.7143 31.6374L9.50263 34.2817C7.37899 35.1857 5 33.6718 5 31.4163L5 12.3203C5 11.0778 5.75598 9.95302 6.92594 9.45497L14.4259 6.26223C15.2473 5.91259 16.1813 5.91259 17.0026 6.26223ZM7.78484 11.3652L14.6429 8.44576V29.8176L8.64373 32.3714C7.93585 32.6728 7.14286 32.1681 7.14286 31.4163L7.14286 12.3203C7.14286 11.9061 7.39485 11.5312 7.78484 11.3652ZM16.7857 8.44576V29.8176L23.2143 32.5542V11.1824L16.7857 8.44576ZM25.3571 11.1824V32.5542L32.2152 29.6348C32.6051 29.4688 32.8571 29.0939 32.8571 28.6797V9.58369C32.8571 8.83187 32.0641 8.32723 31.3563 8.62857L25.3571 11.1824Z"
		fill="#004691" fill-opacity="0.5" />
</svg>