<svg width="40" height="40" viewBox="0 0 40 40" fill="none" xmlns="http://www.w3.org/2000/svg">
	<path
		d="M24.6672 16.888L18.4448 23.1104L15.3336 19.9992M21.9388 6.71273L23.8382 8.33133C24.3167 8.73911 24.9108 8.98565 25.5375 9.03566L28.025 9.2339C29.4875 9.35061 30.6491 10.5115 30.7658 11.974L30.9636 14.4619C31.0136 15.0886 31.261 15.6836 31.6688 16.1621L33.2867 18.0609C34.2383 19.1776 34.2385 20.8201 33.2869 21.9368L31.669 23.8359C31.2612 24.3144 31.0141 24.9096 30.9641 25.5363L30.7651 28.0238C30.6484 29.4863 29.4885 30.6479 28.0261 30.7646L25.5377 30.9632C24.911 31.0132 24.3163 31.2591 23.8378 31.6669L21.9388 33.2855C20.8222 34.2371 19.1786 34.2373 18.062 33.2857L16.163 31.667C15.6845 31.2592 15.0898 31.0129 14.4631 30.9629L11.9747 30.7646C10.5123 30.6479 9.35242 29.4866 9.23571 28.0241L9.0367 25.5365C8.98669 24.9098 8.7396 24.3151 8.33182 23.8366L6.71393 21.9369C5.76232 20.8202 5.76188 19.1782 6.71348 18.0615L8.33283 16.1618C8.74061 15.6833 8.98533 15.0886 9.03534 14.4619L9.23434 11.9743C9.35105 10.5118 10.5142 9.35046 11.9767 9.23375L14.4623 9.0355C15.089 8.98549 15.684 8.73916 16.1625 8.33138L18.0621 6.71273C19.1788 5.76112 20.8222 5.76112 21.9388 6.71273Z"
		stroke="white" stroke-width="2" stroke-linecap="round" stroke-linejoin="round" />
</svg>