<svg width="24" height="24" viewBox="0 0 24 24" fill="none" xmlns="http://www.w3.org/2000/svg">
	<path
		d="M12 3C12.2901 3 12.5321 3.20588 12.5879 3.47949C12.5958 3.51828 12.5996 3.5585 12.5996 3.59961V11.4004H20.4004C20.4415 11.4004 20.4817 11.4042 20.5205 11.4121C20.6768 11.444 20.8111 11.5365 20.8975 11.6641C20.9407 11.7279 20.9723 11.8007 20.9883 11.8789C20.9963 11.918 21 11.9586 21 12C21 12.0374 20.9958 12.0739 20.9893 12.1094C20.986 12.1268 20.9803 12.1433 20.9756 12.1602C20.97 12.1804 20.9647 12.2004 20.957 12.2197C20.952 12.2325 20.9453 12.2445 20.9395 12.2568C20.929 12.2787 20.9182 12.3 20.9053 12.3203C20.8982 12.3314 20.8906 12.3419 20.8828 12.3525C20.8685 12.3721 20.8534 12.3906 20.8369 12.4082C20.8287 12.417 20.8202 12.4253 20.8115 12.4336C20.7922 12.452 20.7717 12.4687 20.75 12.4844C20.7424 12.4898 20.7354 12.4959 20.7275 12.501C20.703 12.517 20.6772 12.5306 20.6504 12.543C20.6429 12.5465 20.6356 12.5505 20.6279 12.5537C20.5944 12.5675 20.5597 12.5793 20.5234 12.5869L20.5205 12.5879L20.4004 12.5996H12.5996V20.4004L12.5879 20.5205C12.5803 20.5579 12.5679 20.5934 12.5537 20.6279C12.5505 20.6356 12.5465 20.6429 12.543 20.6504C12.5306 20.6772 12.517 20.703 12.501 20.7275C12.4959 20.7354 12.4898 20.7424 12.4844 20.75C12.4687 20.7717 12.452 20.7922 12.4336 20.8115C12.4253 20.8202 12.417 20.8287 12.4082 20.8369C12.3906 20.8534 12.3721 20.8685 12.3525 20.8828C12.3419 20.8906 12.3314 20.8982 12.3203 20.9053C12.3 20.9182 12.2787 20.929 12.2568 20.9395C12.2445 20.9453 12.2325 20.952 12.2197 20.957C12.2004 20.9647 12.1804 20.97 12.1602 20.9756C12.1433 20.9803 12.1268 20.986 12.1094 20.9893C12.0739 20.9958 12.0374 21 12 21C11.9623 21 11.9255 20.9959 11.8896 20.9893C11.8723 20.986 11.8557 20.9803 11.8389 20.9756C11.8187 20.9699 11.7986 20.9647 11.7793 20.957C11.7665 20.952 11.7545 20.9454 11.7422 20.9395C11.7204 20.929 11.699 20.9182 11.6787 20.9053C11.6676 20.8982 11.6571 20.8906 11.6465 20.8828C11.627 20.8685 11.6084 20.8534 11.5908 20.8369C11.5821 20.8287 11.5737 20.8202 11.5654 20.8115C11.5471 20.7922 11.5303 20.7717 11.5146 20.75C11.5092 20.7424 11.5032 20.7353 11.498 20.7275C11.482 20.7031 11.4684 20.6772 11.4561 20.6504C11.4526 20.6429 11.4485 20.6356 11.4453 20.6279C11.4312 20.5935 11.4197 20.5577 11.4121 20.5205L11.4004 20.4004V12.5996H3.59961C3.26842 12.5994 3 12.3312 3 12C3 11.9677 3.00387 11.9362 3.00879 11.9053C3.00961 11.9001 3.00882 11.8947 3.00977 11.8896C3.01299 11.8723 3.01875 11.8557 3.02344 11.8389C3.02907 11.8187 3.03437 11.7986 3.04199 11.7793C3.04705 11.7665 3.05368 11.7545 3.05957 11.7422C3.06999 11.7204 3.08087 11.699 3.09375 11.6787C3.10079 11.6676 3.10848 11.6571 3.11621 11.6465C3.13046 11.627 3.14567 11.6084 3.16211 11.5908C3.1703 11.5821 3.17881 11.5737 3.1875 11.5654C3.20681 11.5471 3.22741 11.5303 3.24902 11.5146C3.25656 11.5092 3.26369 11.5032 3.27148 11.498C3.29592 11.482 3.32189 11.4684 3.34863 11.4561C3.35615 11.4526 3.36341 11.4485 3.37109 11.4453C3.40573 11.431 3.44195 11.4198 3.47949 11.4121L3.59961 11.4004H11.4004V3.59961C11.4004 3.58643 11.4035 3.57352 11.4043 3.56055C11.4247 3.24766 11.682 3 12 3Z"
		fill="white" />
</svg>