<svg width="40" height="40" viewBox="0 0 40 40" fill="none" xmlns="http://www.w3.org/2000/svg">
	<path fill-rule="evenodd" clip-rule="evenodd"
		d="M10.2028 10.6037L25.5216 6.13167C27.5803 5.53067 29.6429 7.06249 29.6429 9.19243V10.6037H29.8571C31.6573 10.6037 32.5574 10.6037 33.245 10.9514C33.8498 11.2573 34.3415 11.7454 34.6497 12.3457C35 13.0282 35 13.9216 35 15.7084V28.8954C35 30.6821 35 31.5755 34.6497 32.258C34.3415 32.8583 33.8498 33.3464 33.245 33.6523C32.5574 34 31.6573 34 29.8571 34H10.1429C8.34269 34 7.4426 34 6.75503 33.6523C6.15022 33.3464 5.6585 32.8583 5.35034 32.258C5 31.5755 5 30.6821 5 28.8954L5 15.7084C5 13.9216 5 13.0282 5.35034 12.3457C5.6585 11.7454 6.15022 11.2573 6.75503 10.9514C7.4426 10.6037 8.34269 10.6037 10.1429 10.6037H10.2028ZM26.1262 8.17218C26.8125 7.97185 27.5 8.48245 27.5 9.19243V10.6037H17.7972L26.1262 8.17218ZM10.3323 12.7306C10.3485 12.731 10.3648 12.731 10.3811 12.7306H29.8571C30.7926 12.7306 31.3653 12.7323 31.7938 12.767C31.9934 12.7832 32.1142 12.8036 32.1875 12.8207C32.2224 12.8289 32.2438 12.8357 32.2555 12.8398C32.2666 12.8438 32.2721 12.8466 32.2721 12.8466C32.4737 12.9485 32.6376 13.1112 32.7404 13.3113C32.7404 13.3113 32.7432 13.3168 32.7472 13.3279C32.7513 13.3394 32.7582 13.3607 32.7664 13.3953C32.7837 13.4681 32.8042 13.588 32.8205 13.7861C32.8555 14.2114 32.8571 14.7799 32.8571 15.7084V20.7067H28.0357C27.444 20.7067 26.9643 21.1828 26.9643 21.7701C26.9643 22.3575 27.444 22.8336 28.0357 22.8336H32.8571V28.8954C32.8571 29.8238 32.8555 30.3923 32.8205 30.8176C32.8042 31.0157 32.7837 31.1356 32.7664 31.2084C32.7582 31.243 32.7513 31.2643 32.7472 31.2758C32.7432 31.2869 32.7404 31.2924 32.7404 31.2924C32.6376 31.4925 32.4737 31.6552 32.2721 31.7572C32.2721 31.7572 32.2666 31.76 32.2555 31.7639C32.2438 31.768 32.2224 31.7748 32.1875 31.783C32.1142 31.8001 31.9934 31.8205 31.7938 31.8367C31.3653 31.8714 30.7926 31.8731 29.8571 31.8731H10.1429C9.20741 31.8731 8.63471 31.8714 8.20622 31.8367C8.00661 31.8205 7.88584 31.8001 7.8125 31.783C7.77761 31.7748 7.75615 31.768 7.74455 31.7639C7.7334 31.76 7.72787 31.7572 7.72787 31.7572C7.52627 31.6552 7.36236 31.4925 7.25964 31.2924C7.25964 31.2924 7.25682 31.2869 7.25284 31.2758C7.2487 31.2643 7.24181 31.243 7.2336 31.2084C7.21633 31.1356 7.19584 31.0157 7.17953 30.8176C7.14452 30.3923 7.14286 29.8238 7.14286 28.8954V15.7084C7.14286 14.7799 7.14452 14.2114 7.17953 13.7861C7.19584 13.588 7.21633 13.4681 7.2336 13.3953C7.24181 13.3607 7.2487 13.3394 7.25284 13.3279C7.25682 13.3168 7.25964 13.3113 7.25964 13.3113C7.36236 13.1112 7.52627 12.9485 7.72787 12.8466C7.72787 12.8466 7.7334 12.8438 7.74455 12.8398C7.75615 12.8357 7.77761 12.8289 7.8125 12.8207C7.88584 12.8036 8.00661 12.7832 8.20622 12.767C8.63471 12.7323 9.20741 12.7306 10.1429 12.7306H10.3323Z"
		fill="#004691" fill-opacity="0.5" />
</svg>